<?xml version="1.0" standalone="no"?>
<!DOCTYPE svg PUBLIC "-//W3C//DTD SVG 20010904//EN"
 "http://www.w3.org/TR/2001/REC-SVG-20010904/DTD/svg10.dtd">
<svg version="1.0" xmlns="http://www.w3.org/2000/svg"
 width="827.000000pt" height="678.000000pt" viewBox="0 0 827.000000 678.000000"
 preserveAspectRatio="xMidYMid meet">

<g transform="translate(0.000000,678.000000) scale(0.100000,-0.100000)"
fill="#fff" stroke="none">
<path d="M4062 6763 c-39 -19 -75 -78 -92 -150 -12 -51 -13 -52 -53 -58 -170
-22 -334 -48 -420 -66 -541 -109 -1003 -307 -1419 -609 -72 -52 -135 -94 -140
-92 -4 1 -7 -2 -6 -8 4 -13 -92 -91 -103 -84 -5 3 -8 1 -7 -4 2 -6 -55 -70
-127 -144 -71 -73 -144 -149 -160 -168 -416 -482 -692 -1065 -789 -1670 -37
-227 -48 -379 -45 -615 1 -174 -1 -217 -15 -254 -12 -32 -16 -77 -16 -172 l0
-129 -28 -6 c-151 -33 -230 -88 -259 -180 -15 -49 -16 -67 -4 -172 25 -240 66
-349 152 -411 55 -40 317 -126 569 -186 223 -53 235 -57 200 -62 -14 -2 -77
-10 -140 -18 -198 -26 -405 -53 -705 -94 -159 -22 -325 -43 -368 -47 -43 -4
-79 -10 -82 -13 -2 -4 74 -33 168 -64 l172 -58 365 51 c508 71 953 129 1098
142 67 7 122 15 122 18 0 3 -23 12 -51 19 -85 22 -168 58 -203 89 -34 30 -176
69 -586 162 -127 28 -179 45 -191 59 -10 13 -52 27 -133 45 -65 15 -131 33
-147 41 -38 20 -75 71 -88 121 -14 51 -40 237 -42 297 -4 83 56 125 209 147
l82 12 0 165 c0 186 8 225 56 282 41 48 94 71 281 122 396 107 1023 220 1423
255 48 4 79 12 87 21 6 8 29 34 50 57 21 22 71 80 111 129 42 50 78 84 84 81
7 -4 8 -2 4 4 -7 11 200 256 304 361 78 78 226 127 422 138 l97 6 36 86 c43
100 90 177 116 191 10 6 147 10 329 10 l312 0 95 -94 c66 -65 93 -98 88 -107
-5 -8 -5 -11 0 -7 4 4 13 1 19 -7 8 -11 52 -17 171 -25 786 -51 1585 -222
1805 -388 53 -39 64 -56 165 -247 32 -60 75 -139 95 -175 20 -36 39 -72 42
-81 5 -12 35 -18 140 -28 271 -26 516 -61 570 -81 104 -39 138 -98 138 -237 0
-89 -13 -234 -25 -290 -4 -19 1 -23 46 -32 57 -12 79 -29 79 -61 0 -31 -59
-259 -75 -289 -29 -56 -61 -74 -192 -107 l-127 -32 -16 -68 c-9 -38 -26 -95
-38 -127 l-22 -58 42 5 c113 16 565 78 656 91 56 8 107 15 112 15 6 0 10 18
10 40 0 34 -3 40 -22 40 -27 0 -365 -36 -466 -50 -40 -6 -96 -10 -125 -10 -44
0 -49 2 -37 14 8 8 52 23 97 34 141 35 204 84 243 189 34 92 82 314 76 352 -6
38 -45 84 -85 100 l-26 11 0 188 c0 185 0 188 -28 244 -48 97 -129 147 -284
174 -48 9 -90 17 -92 19 -2 2 -7 59 -12 125 -40 535 -228 1092 -532 1575 -88
140 -204 300 -285 393 -36 41 -60 77 -56 84 4 6 3 8 -3 5 -5 -3 -59 43 -119
103 -547 545 -1265 887 -2086 992 l-167 22 -12 55 c-15 75 -50 135 -93 155
-42 20 -52 20 -94 -1z m62 -135 c3 -13 7 -53 8 -90 3 -58 8 -70 31 -92 22 -21
27 -34 27 -73 0 -41 -4 -52 -30 -75 -45 -39 -41 -80 11 -127 39 -35 41 -38 46
-113 6 -76 5 -78 -16 -78 -44 0 -14 -24 67 -54 l82 -31 0 -67 c0 -38 -4 -68
-8 -68 -5 0 -42 9 -83 20 -83 22 -98 24 -83 12 5 -5 75 -30 157 -57 l147 -49
0 -78 c0 -71 -2 -79 -17 -74 -52 15 -264 66 -275 66 -27 -1 40 -28 147 -60 61
-18 157 -49 215 -69 l105 -37 3 -544 2 -544 -37 35 c-82 76 -61 73 -431 77
l-332 4 -54 -26 c-64 -31 -93 -67 -148 -181 l-40 -85 -39 0 -39 0 0 629 0 630
53 15 c49 14 179 46 405 98 l92 21 0 34 c0 29 -3 33 -22 28 -235 -53 -301 -69
-335 -82 -11 -5 -13 7 -11 63 l3 68 185 46 185 46 3 33 c3 29 1 33 -14 27 -17
-7 -138 -37 -196 -50 -28 -6 -28 -6 -28 48 0 31 5 58 13 63 11 9 45 19 175 53
38 10 42 14 42 41 0 24 -4 29 -17 25 -10 -2 -32 -7 -49 -11 l-31 -6 4 73 c4
70 6 74 44 108 34 30 39 41 39 78 0 32 -4 42 -16 42 -10 0 -14 5 -10 16 3 8 2
12 -4 9 -16 -10 -33 41 -26 79 4 21 17 42 33 54 26 19 29 34 42 195 2 17 21 5
25 -15z m-534 -390 c14 -32 50 -206 50 -240 0 -32 -18 -43 -54 -34 -18 4 -25
15 -30 43 -4 21 -16 80 -28 130 -16 75 -18 96 -8 108 19 23 59 19 70 -7z
m1090 -3 c16 -14 16 -21 0 -98 -10 -46 -21 -93 -24 -105 -9 -26 -42 -29 -66
-7 -16 15 -16 21 1 103 10 48 21 95 24 105 9 21 43 22 65 2z m-1492 -97 c6
-13 27 -61 46 -108 19 -47 52 -128 74 -180 71 -170 112 -279 112 -300 0 -25
-46 -39 -65 -19 -8 8 -45 91 -83 184 -39 94 -91 219 -116 279 -51 120 -54 140
-28 155 28 17 48 13 60 -11z m1938 -74 c4 -17 -13 -69 -57 -172 -35 -82 -71
-159 -80 -172 -14 -22 -19 -23 -43 -12 -14 6 -26 20 -26 30 0 28 128 335 146
348 22 17 53 5 60 -22z m-2264 -141 c27 -32 138 -256 131 -266 -3 -6 -2 -7 3
-4 13 8 106 -167 99 -186 -4 -8 -17 -19 -30 -25 -31 -14 -33 -12 -152 208
-142 261 -135 247 -123 270 13 25 52 26 72 3z m2559 -13 c10 -6 19 -20 19 -32
0 -18 -65 -137 -209 -385 -41 -71 -64 -85 -94 -55 l-20 20 43 79 c94 173 194
349 208 366 17 20 26 21 53 7z m-2991 -225 c158 -183 165 -193 143 -217 -9
-10 -24 -18 -33 -18 -22 0 -320 338 -320 362 0 24 39 49 60 38 9 -5 77 -79
150 -165z m3544 123 c18 -26 26 -13 -158 -253 -167 -218 -265 -338 -283 -349
-21 -12 -63 9 -63 31 1 10 53 83 116 163 64 80 130 164 147 186 199 259 209
268 241 222z m-3536 -512 c78 -79 142 -147 142 -152 0 -16 -34 -44 -54 -44
-23 0 -296 265 -296 288 0 23 25 52 46 52 13 0 70 -50 162 -144z m-398 73 c25
-22 79 -67 120 -101 118 -97 123 -103 110 -127 -6 -12 -17 -21 -24 -21 -13 0
-91 57 -226 165 -99 79 -101 82 -74 109 24 24 45 19 94 -25z m4252 -26 c10 -9
18 -23 18 -33 0 -21 -205 -200 -228 -199 -9 1 -30 4 -46 8 -29 6 -28 7 70 96
54 50 112 102 127 118 33 32 35 32 59 10z m-378 -32 c9 -7 16 -20 16 -28 0
-17 -48 -63 -64 -60 -6 1 -10 -3 -9 -9 1 -6 -33 -46 -76 -88 -76 -74 -79 -76
-110 -65 -35 12 -35 12 -20 42 17 32 200 207 211 201 5 -3 8 -2 7 3 -4 25 17
27 45 4z m-4183 -34 c45 -35 220 -160 319 -229 105 -73 114 -82 101 -105 -21
-41 -47 -38 -134 15 -45 28 -156 95 -247 150 -184 112 -197 128 -144 177 35
33 52 32 105 -8z m4910 -47 c52 -52 37 -72 -133 -190 -56 -39 -97 -53 -82 -28
4 7 3 8 -5 4 -10 -7 -96 19 -113 33 -10 9 262 211 284 211 11 0 33 -13 49 -30z
m-3388 -63 c37 -15 71 -28 76 -31 5 -3 6 -26 4 -50 -3 -25 -2 -65 1 -89 6 -40
11 -46 46 -60 l39 -15 1 -391 0 -391 -25 0 c-52 0 -245 -80 -245 -102 0 -4 -4
-8 -10 -8 -7 0 -10 169 -10 488 l0 489 -30 -5 -30 -4 0 -515 0 -515 -51 -59
c-29 -32 -56 -56 -61 -53 -4 3 -7 0 -6 -8 2 -7 -3 -12 -10 -10 -8 1 -11 -2 -7
-8 3 -5 -16 -33 -42 -62 -64 -70 -63 -69 -101 -112 -18 -21 -37 -34 -44 -30
-7 4 -8 3 -4 -5 5 -7 -29 -55 -85 -121 -103 -123 -104 -123 -248 -135 -46 -4
-90 -9 -97 -12 -12 -4 -14 67 -14 442 l0 446 -27 -3 -28 -3 -3 -447 c-2 -348
-5 -448 -15 -448 -6 0 -29 -3 -49 -6 l-38 -7 0 437 c0 240 -3 436 -7 436 -13
0 -136 -30 -170 -41 l-33 -11 0 -424 0 -424 -27 -5 c-70 -15 -63 -62 -63 438
0 249 4 457 8 462 4 6 43 19 87 29 44 10 141 33 216 51 l136 33 134 -48 c74
-26 176 -64 227 -84 52 -20 100 -36 108 -36 12 0 14 61 14 394 l0 395 58 16
c31 9 65 18 75 21 14 5 17 18 17 89 l0 83 108 31 c119 34 129 34 225 -2z
m1927 3 c30 -11 74 -28 98 -36 l42 -16 0 -109 c0 -60 -2 -109 -5 -109 -4 0
-303 -89 -372 -111 l-33 -11 0 -279 0 -279 -55 0 -55 0 2 351 3 351 35 12 c19
6 36 17 36 24 1 6 2 45 3 86 l1 75 58 16 c31 9 80 25 107 35 65 24 70 24 135
0z m1015 -221 c61 -23 145 -53 187 -67 l78 -26 2 -454 c2 -250 1 -455 -2 -457
-3 -2 -35 7 -70 19 -36 13 -120 38 -187 56 l-123 34 -2 435 -3 436 -30 -3
c-16 -2 -32 -6 -35 -9 -3 -2 -6 -193 -8 -424 -2 -274 -6 -419 -13 -419 -5 0
-39 7 -74 16 l-65 16 0 380 0 380 -27 -6 c-36 -9 -482 -137 -643 -185 l-125
-37 -3 -38 c-3 -37 -2 -38 23 -32 15 4 40 10 56 13 l29 6 0 -192 0 -192 -72 6
c-40 4 -79 8 -86 11 -10 3 -12 54 -10 231 l3 227 135 39 c285 81 749 218 835
246 50 16 97 29 105 30 8 0 65 -18 125 -40z m500 -41 c15 -22 14 -24 -17 -50
-42 -36 -71 -36 -87 -1 -7 15 -9 29 -4 30 4 2 22 12 38 22 40 26 51 25 70 -1z
m-4928 -59 c285 -158 362 -204 366 -221 5 -18 -21 -48 -41 -48 -13 0 -351 173
-454 232 -71 41 -83 62 -52 92 8 9 24 16 34 16 11 0 77 -32 147 -71z m-210
-134 c314 -150 308 -147 308 -180 0 -20 -6 -31 -17 -33 -18 -4 -117 37 -358
145 -142 64 -160 75 -160 101 0 11 35 52 45 52 2 0 84 -38 182 -85z m4210
-591 c-2 -2 -31 1 -65 7 l-62 11 2 291 3 290 60 16 60 16 3 -314 c1 -173 1
-316 -1 -317z m1082 604 c12 -31 -7 -51 -74 -78 -65 -26 -89 -24 -93 11 -3 22
5 29 59 57 73 38 97 40 108 10z m-1283 -303 l-1 -275 -25 4 c-14 3 -42 8 -62
12 l-38 6 0 247 0 247 58 16 c31 9 60 17 63 17 4 1 6 -123 5 -274z m-206 -15
l0 -231 -52 6 c-29 4 -59 8 -65 10 -10 3 -13 54 -13 208 l0 204 53 16 c28 8
58 16 65 16 9 1 12 -51 12 -229z m-3983 10 c234 -87 273 -106 273 -130 0 -21
-20 -40 -42 -40 -25 0 -458 148 -485 166 -13 8 -23 21 -23 29 0 17 35 55 51
55 5 0 107 -36 226 -80z m5733 46 c19 -24 8 -59 -23 -74 -37 -18 -366 -138
-414 -151 -30 -9 -40 -8 -55 6 -39 35 -14 61 94 98 43 15 137 51 210 81 141
57 168 63 188 40z m-5039 -723 c0 -197 2 -367 4 -378 6 -29 -5 -41 -42 -48
l-33 -7 0 390 0 389 23 4 c12 2 28 5 35 6 9 1 12 -77 13 -356z m-331 -108 l0
-375 -24 0 c-13 0 -38 -3 -55 -6 l-31 -6 0 336 0 337 -27 -3 -28 -3 -5 -340
-5 -339 -25 -7 c-14 -4 -34 -7 -45 -8 -20 -1 -20 5 -20 318 0 176 -3 323 -7
326 -4 4 -19 5 -33 1 l-25 -6 0 -329 0 -328 -45 -10 -45 -10 0 281 c0 154 -4
287 -9 294 -5 9 -17 11 -34 7 l-27 -7 -2 -297 -3 -296 -47 -12 c-26 -6 -52
-14 -58 -18 -7 -4 -10 100 -10 339 0 189 -2 350 -5 358 -4 9 41 26 167 62 328
94 403 115 425 115 l22 1 1 -375z m5294 253 c22 -36 -4 -51 -132 -76 l-122
-24 -20 23 c-10 13 -19 27 -20 31 0 12 229 68 264 65 10 -1 24 -10 30 -19z
m294 -305 c4 -41 1 -42 -208 -45 l-165 -3 0 35 0 35 65 6 c36 3 119 5 185 5
l120 -1 3 -32z"/>
<path d="M3785 5314 c-69 -36 -105 -97 -113 -191 -4 -53 -1 -70 22 -117 80
-164 289 -95 313 103 7 64 -19 142 -63 187 -30 29 -41 34 -82 34 -26 0 -60 -7
-77 -16z"/>
<path d="M4268 5313 c-46 -29 -78 -101 -78 -177 0 -84 28 -147 83 -187 57 -42
97 -46 154 -18 59 30 86 79 91 166 4 53 0 72 -23 119 -36 74 -91 114 -154 114
-25 0 -58 -8 -73 -17z"/>
<path d="M3955 4744 c-5 -1 -27 -5 -47 -9 l-38 -6 0 -86 0 -86 47 7 c25 3 48
8 50 10 9 9 -3 173 -12 170z"/>
<path d="M4222 4658 l3 -93 43 -6 c23 -3 43 -4 45 -3 1 1 1 41 -1 87 -3 85 -3
86 -34 96 -58 21 -59 20 -56 -81z"/>
<path d="M3710 4701 l-35 -6 0 -80 0 -80 45 4 c25 1 47 5 50 8 3 2 5 39 5 81
0 84 -1 85 -65 73z"/>
<path d="M4400 4625 l0 -86 48 3 47 3 3 72 c3 78 6 74 -65 88 l-33 7 0 -87z"/>
<path d="M2938 4949 c-17 -9 -18 -43 -17 -507 1 -273 4 -510 8 -527 l6 -30 20
40 c19 38 20 64 23 538 3 524 4 512 -40 486z"/>
<path d="M687 5762 c-19 -88 -73 -188 -100 -186 -9 1 -15 -3 -14 -9 3 -14 -82
-46 -155 -59 -32 -6 -56 -14 -53 -18 2 -4 28 -10 56 -14 70 -9 148 -40 183
-72 36 -34 71 -111 87 -191 6 -35 14 -63 18 -63 4 0 12 30 19 67 29 150 89
216 227 249 39 9 77 19 85 22 8 2 -21 14 -65 27 -44 12 -92 27 -107 33 -68 28
-131 128 -144 229 -3 29 -10 55 -14 58 -4 2 -14 -31 -23 -73z"/>
<path d="M7442 5588 c-25 -25 -6 -68 30 -68 9 0 22 9 28 21 9 16 8 25 -6 40
-20 22 -35 24 -52 7z"/>
<path d="M7312 5140 c-17 -30 -31 -42 -62 -50 -42 -11 -46 -30 -7 -30 31 0 70
-29 63 -47 -3 -8 -2 -12 3 -9 5 3 11 -1 15 -9 8 -23 23 -18 30 11 5 18 20 31
53 46 l46 20 -41 18 c-27 12 -46 30 -57 54 -10 20 -18 36 -19 36 0 0 -11 -18
-24 -40z"/>
<path d="M425 4982 c0 -42 25 -63 50 -42 9 7 15 24 13 39 -2 19 -10 27 -33 31
-30 6 -31 5 -30 -28z"/>
<path d="M7696 4848 c3 -4 0 -16 -5 -27 -13 -23 20 -71 49 -71 45 0 66 62 32
93 -17 16 -85 20 -76 5z"/>
<path d="M403 4453 c-15 -28 -31 -42 -62 -54 -41 -15 -45 -29 -8 -29 28 0 74
-36 81 -65 9 -34 20 -31 35 10 10 27 20 37 52 46 21 7 39 16 39 20 0 4 -16 13
-36 19 -28 10 -40 21 -52 51 -8 22 -18 39 -23 39 -4 0 -16 -17 -26 -37z"/>
<path d="M7827 4280 c-2 -8 -10 -34 -16 -57 -16 -59 -61 -100 -132 -120 -60
-16 -78 -33 -36 -33 12 0 45 -11 73 -24 56 -26 91 -72 101 -131 7 -46 17 -44
33 8 27 90 62 123 150 142 57 12 56 17 -1 32 -88 22 -131 63 -153 149 -8 27
-16 42 -19 34z"/>
<path d="M3877 4256 c-12 -13 -38 -66 -59 -117 l-37 -94 82 -6 c45 -4 208 -10
361 -14 l279 -7 -7 23 c-4 13 -14 54 -22 91 -24 110 -38 143 -64 146 l-23 4 8
-106 7 -106 -69 5 c-37 2 -158 7 -267 10 -110 3 -201 7 -203 9 -4 4 32 145 39
151 2 2 14 2 27 -2 20 -5 22 -11 20 -62 -3 -51 -1 -56 19 -59 24 -4 25 1 22
77 -2 40 0 43 19 38 17 -4 21 -1 21 18 0 22 -4 23 -66 24 -57 0 -69 -3 -87
-23z"/>
<path d="M4048 4207 c-52 -101 -51 -118 4 -71 21 17 34 22 41 15 7 -7 6 -15
-2 -24 -9 -12 -6 -15 16 -15 16 0 31 5 35 12 6 8 8 7 8 -1 0 -22 48 -15 55 7
8 27 19 25 39 -5 18 -28 52 -35 42 -9 -3 9 -6 21 -6 29 0 7 -9 15 -21 18 l-20
5 20 41 c12 22 21 47 21 56 0 24 -30 17 -40 -10 -5 -14 -14 -25 -20 -25 -5 0
-10 11 -10 25 0 20 -5 25 -25 25 -31 0 -32 -18 -4 -54 22 -27 22 -28 2 -54
-30 -41 -40 -37 -52 18 -12 55 -27 90 -39 90 -4 0 -24 -33 -44 -73z"/>
<path d="M4320 4191 c0 -50 4 -92 8 -95 21 -13 29 14 28 96 -1 77 -3 88 -18
88 -16 0 -18 -11 -18 -89z"/>
<path d="M5250 3919 c-41 -5 -108 -20 -149 -35 -54 -19 -85 -24 -115 -20 -68
10 -1018 36 -1373 39 l-332 2 -41 -40 c-23 -22 -105 -113 -182 -202 -77 -90
-145 -163 -151 -163 -6 0 -7 -3 -4 -6 8 -9 -54 -80 -66 -76 -5 1 -6 -2 -3 -7
4 -5 1 -15 -6 -23 -7 -7 -29 -31 -47 -53 -19 -22 -39 -39 -44 -37 -5 1 -6 -2
-3 -7 3 -5 -4 -20 -15 -35 l-20 -26 28 0 c15 0 38 6 49 13 22 12 508 576 530
615 2 3 815 -24 1032 -35 73 -3 129 -10 125 -14 -13 -13 -884 -534 -943 -564
l-55 -28 -280 -3 c-570 -6 -1360 -116 -2000 -279 -200 -51 -249 -70 -285 -109
-24 -26 -25 -34 -28 -169 -3 -135 -2 -144 20 -176 62 -93 168 -45 172 78 2 66
-19 108 -66 132 -23 12 -47 17 -59 14 -19 -6 -20 -5 -8 16 21 40 39 52 77 51
45 -2 80 -35 92 -88 5 -21 10 -90 10 -151 0 -93 3 -113 15 -113 29 0 35 39 35
215 l0 176 63 -7 c34 -3 199 -24 367 -45 168 -21 415 -51 550 -68 135 -17 283
-37 330 -43 l85 -13 3 -227 2 -228 25 0 25 0 0 211 0 211 68 -7 c198 -20 399
-48 429 -60 18 -8 47 -29 63 -47 28 -30 31 -37 29 -54 0 -4 5 -10 13 -15 10
-6 13 -46 13 -173 0 -160 -1 -165 -24 -190 -13 -14 -32 -28 -41 -31 -23 -7
-162 15 -1795 292 -255 43 -305 44 -370 13 -45 -22 -53 -23 -119 -12 -131 22
-182 24 -236 13 -85 -18 -82 -9 -59 -166 23 -165 32 -195 63 -224 22 -20 101
-47 194 -64 l32 -7 0 53 c0 28 -3 95 -6 148 l-7 95 -98 23 c-84 20 -99 26 -99
43 0 16 5 19 22 15 13 -3 64 -11 114 -18 l92 -12 43 31 c54 40 74 42 31 3 -29
-27 -32 -35 -32 -88 0 -88 19 -294 31 -330 5 -17 15 -36 22 -41 9 -8 11 37 9
196 l-3 207 94 50 94 49 264 -47 c592 -106 1013 -180 1174 -207 94 -16 208
-36 255 -44 220 -39 367 -66 393 -72 l27 -6 0 359 c1 197 5 377 9 401 10 51
59 116 90 120 20 3 21 1 12 -17 -12 -22 -14 -61 -5 -85 4 -10 18 -16 40 -16
37 0 53 20 49 60 -1 14 -3 33 -4 43 -1 12 -10 17 -33 18 -63 3 75 18 602 69
227 22 685 55 900 66 l145 7 -3 -66 -4 -66 -36 -3 -37 -3 -3 -57 -3 -58 46 0
45 0 0 60 0 60 36 0 36 0 -4 -55 -3 -55 48 0 47 0 0 60 0 60 41 0 41 0 -4 -55
-5 -55 49 0 48 0 0 44 c0 66 -7 76 -50 76 l-38 0 -4 65 -3 65 60 -1 c33 -1 53
-3 43 -6 -16 -4 -26 -54 -20 -100 3 -20 9 -23 48 -23 l44 0 0 -56 0 -55 43 3
42 3 -3 57 -2 57 42 3 43 3 -2 63 -1 62 49 0 49 0 0 -60 0 -60 -34 0 c-59 0
-66 -7 -66 -65 0 -60 7 -66 69 -58 l41 6 0 58 0 59 33 0 c70 0 77 6 77 71 l0
59 63 -1 c44 -1 54 -3 32 -8 -28 -6 -30 -9 -33 -57 l-3 -52 -44 -7 c-49 -7
-52 -15 -39 -84 6 -28 10 -31 45 -31 42 0 45 5 40 76 -2 29 0 32 34 36 19 2
38 2 40 -1 3 -2 5 -26 5 -53 l0 -49 43 3 42 3 3 51 c3 49 5 52 32 56 17 3 31
0 31 -6 1 -6 3 -18 4 -26 1 -8 3 -27 4 -42 1 -26 4 -28 40 -28 39 0 40 1 46
44 9 56 2 66 -39 66 -33 0 -34 0 -39 58 -2 31 -4 58 -2 59 1 2 195 6 431 10
440 8 967 3 979 -9 9 -8 -16 -60 -32 -65 -6 -2 -13 6 -15 18 -7 48 -68 52 -68
4 0 -17 -4 -24 -12 -19 -7 4 -8 3 -4 -4 4 -7 24 -12 45 -12 38 0 38 -1 37 -37
-1 -32 2 -38 22 -41 28 -4 39 21 25 59 -10 27 -10 29 13 29 20 0 24 -5 24 -29
0 -17 8 -34 20 -42 17 -13 20 -31 26 -178 8 -185 15 -185 39 1 33 254 24 313
-53 345 -50 21 -388 62 -580 71 l-157 7 -57 100 c-32 55 -92 163 -133 240 -42
77 -83 150 -93 163 -33 42 -267 92 -647 137 -223 26 -616 55 -749 55 -43 0
-77 2 -74 5 8 8 167 53 249 70 41 9 128 19 194 22 145 8 119 16 -103 32 -167
12 -165 12 -272 0z m-490 -123 c0 -10 -386 -242 -535 -321 -49 -26 -94 -51
-100 -55 -13 -10 -89 -51 -205 -113 -52 -28 -112 -61 -132 -74 -21 -13 -46
-23 -55 -23 -11 0 0 12 27 29 65 41 305 189 340 209 17 9 133 78 258 154 309
185 332 198 370 198 17 0 32 -2 32 -4z m270 -24 c0 -2 -18 -46 -39 -96 -21
-50 -80 -194 -130 -321 -50 -126 -95 -236 -100 -243 -6 -10 -63 -6 -292 22
-156 19 -315 38 -354 41 -38 3 -87 8 -108 12 l-39 5 26 14 c15 7 52 28 84 47
31 19 129 76 217 127 408 236 641 374 654 386 13 12 81 17 81 6z m386 -92 c77
-5 148 -10 157 -10 10 0 14 -5 11 -14 -6 -15 43 -314 76 -473 11 -51 20 -95
20 -98 0 -3 3 -5 8 -5 23 0 -56 565 -82 582 -6 5 5 5 24 2 19 -4 38 -9 41 -13
4 -3 19 -64 33 -136 50 -252 86 -439 86 -450 0 -9 -107 -14 -427 -19 -236 -4
-436 -10 -445 -12 -10 -3 -18 0 -18 6 0 6 44 109 99 228 100 221 166 370 181
408 7 19 15 21 52 18 24 -2 106 -8 184 -14z m721 -56 c78 -9 146 -20 151 -23
6 -4 27 -99 47 -211 36 -209 62 -317 72 -306 10 10 -54 453 -73 500 -6 17 -4
18 22 12 16 -4 30 -8 31 -10 6 -6 104 -509 100 -512 -1 -1 -131 -4 -288 -6
l-286 -5 -43 236 c-23 130 -48 263 -56 295 l-13 59 97 -6 c53 -3 161 -14 239
-23z m392 -70 c12 -9 90 -118 173 -243 l151 -226 -128 -3 c-95 -2 -130 1 -136
10 -4 7 -15 42 -23 78 -54 230 -86 372 -86 385 0 20 20 19 49 -1z m-2404 -474
c172 -10 444 -36 452 -44 5 -4 -165 -23 -422 -46 -237 -21 -340 -33 -505 -56
-442 -62 -564 -102 -717 -230 -36 -31 -60 -44 -82 -44 -26 0 -275 29 -786 90
-44 6 -120 15 -170 20 -49 6 -166 20 -260 30 -93 11 -199 20 -235 21 -55 1
-28 7 177 44 415 75 841 130 1348 175 542 47 862 58 1200 40z m2025 -99 c-34
-6 -35 -7 -40 -61 -5 -54 -5 -55 -40 -57 l-35 -3 3 45 c2 26 -1 52 -8 60 -9
11 -5 14 27 18 21 2 58 4 83 4 42 0 43 0 10 -6z m-560 -39 c0 -15 -3 -43 -6
-63 -6 -34 -9 -37 -40 -37 -32 0 -34 2 -34 37 0 20 -3 46 -6 58 -6 23 4 28 59
30 23 1 27 -2 27 -25z m-433 2 c-3 -3 -12 -4 -19 -1 -8 3 -5 6 6 6 11 1 17 -2
13 -5z m95 -59 l-4 -65 -34 0 c-33 0 -34 1 -34 43 0 23 -3 52 -6 65 -6 20 -3
22 37 22 l44 0 -3 -65z"/>
<path d="M340 3796 c0 -25 -49 -74 -85 -86 -42 -14 -45 -25 -9 -34 43 -11 72
-36 84 -72 12 -37 30 -46 30 -15 0 30 38 70 81 82 43 13 52 29 15 29 -32 0
-75 36 -92 77 -15 35 -24 42 -24 19z"/>
<path d="M7800 3555 c-26 -32 13 -81 48 -59 34 22 22 74 -18 74 -10 0 -23 -7
-30 -15z"/>
<path d="M350 2981 c-15 -28 -12 -46 8 -64 37 -34 82 -15 82 33 0 14 -5 31
-12 38 -19 19 -66 15 -78 -7z"/>
<path d="M6503 2983 c-20 -4 -23 -11 -23 -53 l0 -48 -60 -4 c-54 -3 -59 -1
-54 15 3 10 3 34 -1 53 -6 33 -8 34 -50 34 l-45 0 0 -55 c0 -51 2 -55 24 -55
13 0 27 -6 29 -12 4 -10 6 -10 6 0 2 22 20 12 19 -10 -3 -72 -6 -70 87 -67
l85 3 6 33 c3 18 4 40 0 48 -4 12 3 15 29 15 l35 0 0 -51 0 -50 40 3 c22 2 40
6 40 11 0 4 0 27 0 52 0 44 0 45 -34 45 -33 0 -34 1 -40 50 -7 49 -8 50 -39
49 -18 -1 -42 -4 -54 -6z"/>
<path d="M6700 2980 c-31 -4 -35 -9 -38 -38 -6 -55 37 -82 72 -46 16 16 22 80
9 86 -5 2 -24 1 -43 -2z"/>
<path d="M6817 2984 c-4 -4 -7 -25 -7 -46 0 -21 -4 -38 -10 -38 -5 0 -10 5
-10 10 0 6 -11 3 -25 -6 -21 -14 -25 -24 -25 -65 l0 -49 39 0 c45 0 55 15 45
66 -6 33 -5 34 25 34 29 0 31 -3 31 -34 0 -55 6 -62 46 -58 l36 4 -5 44 c-4
43 -4 44 24 44 27 0 29 -3 29 -40 0 -39 1 -40 35 -40 30 0 35 3 35 24 0 38
-20 84 -39 89 -10 2 -21 17 -24 34 -6 29 -9 30 -58 24 -4 -1 -9 -19 -13 -41
-5 -34 -10 -40 -31 -40 -21 0 -24 5 -27 43 -3 39 -5 42 -33 45 -17 2 -34 0
-38 -4z"/>
<path d="M7077 2973 c-4 -3 -7 -21 -7 -40 0 -30 3 -33 29 -33 33 0 47 25 36
60 -6 19 -44 28 -58 13z"/>
<path d="M7292 2972 c-21 -14 -52 -84 -52 -119 0 -30 3 -33 28 -33 37 0 43 7
31 38 -11 29 1 43 31 35 15 -4 17 -10 10 -33 -9 -32 6 -44 44 -34 20 5 22 10
16 32 -14 53 -22 72 -31 72 -5 0 -14 11 -19 25 -9 25 -34 32 -58 17z m23 -62
c-3 -5 -10 -10 -16 -10 -5 0 -9 5 -9 10 0 6 7 10 16 10 8 0 12 -4 9 -10z"/>
<path d="M7403 2974 c-7 -3 -13 -19 -13 -35 0 -27 3 -29 36 -29 34 0 35 1 32
33 -3 32 -24 44 -55 31z"/>
<path d="M7177 2963 c-4 -3 -7 -19 -7 -34 0 -20 -6 -28 -25 -33 -20 -5 -25
-13 -25 -40 0 -41 3 -44 40 -38 27 4 30 8 30 43 0 35 3 39 25 39 22 0 25 4 25
35 0 32 -3 35 -28 35 -16 0 -32 -3 -35 -7z"/>
<path d="M4941 2921 c-8 -5 -16 -33 -19 -62 -5 -57 -13 -69 -49 -69 -21 0 -23
5 -23 49 0 71 -4 77 -50 73 l-39 -4 -3 -62 -3 -61 -37 -3 -37 -3 -3 63 -3 63
-35 -3 c-19 -2 -38 -6 -42 -9 -5 -2 -8 -31 -8 -64 l0 -59 -34 0 c-29 0 -34 -4
-39 -29 -3 -16 -3 -45 0 -64 5 -34 7 -36 37 -31 53 10 53 9 48 68 l-4 56 39 0
c32 0 40 -4 40 -17 0 -10 1 -35 2 -56 l1 -38 43 3 42 3 0 58 -1 57 38 0 c40 0
42 -4 41 -83 0 -15 8 -17 46 -15 l46 3 0 52 -1 52 39 6 c46 8 52 20 41 83 -8
40 -13 47 -34 50 -14 1 -31 -2 -39 -7z"/>
<path d="M7457 2899 c-10 -6 -17 -22 -17 -39 0 -28 3 -30 35 -30 32 0 35 2 35
30 0 34 -26 54 -53 39z"/>
<path d="M4437 2884 c-4 -4 -7 -34 -7 -66 0 -38 -4 -57 -10 -53 -6 4 -24 1
-40 -7 -28 -12 -30 -16 -30 -72 l0 -58 31 6 c17 3 38 6 45 6 10 0 14 15 14 55
0 51 2 55 23 55 44 0 58 20 55 80 l-3 55 -35 3 c-20 2 -39 0 -43 -4z"/>
<path d="M4137 2862 l-38 -3 3 -62 c3 -67 12 -76 64 -63 22 6 24 11 24 66 0
32 -3 60 -7 62 -5 2 -25 2 -46 0z"/>
<path d="M4270 2815 c0 -60 -7 -68 -72 -74 -5 -1 -8 -28 -8 -61 0 -65 1 -65
60 -54 31 7 32 7 28 60 -3 52 -2 54 22 54 37 0 50 12 52 51 4 75 2 79 -42 79
l-40 0 0 -55z"/>
<path d="M3955 2841 c-29 -6 -30 -9 -33 -63 l-3 -57 -37 -3 -37 -3 -3 -54 c-2
-30 1 -58 6 -63 5 -5 28 -6 51 -2 l43 7 -6 58 -5 58 42 3 42 3 0 60 c0 65 -4
68 -60 56z"/>
<path d="M3747 2823 c-4 -3 -7 -30 -7 -60 l0 -53 -40 -6 -40 -7 0 -58 0 -59
45 0 44 0 3 63 c2 47 6 61 17 59 8 -2 27 0 42 3 28 6 29 9 29 66 l0 59 -43 0
c-24 0 -47 -3 -50 -7z"/>
<path d="M3598 2813 c-27 -4 -28 -7 -28 -64 0 -57 -1 -60 -22 -59 -67 6 -68 5
-68 -65 0 -70 0 -70 59 -59 30 6 31 8 31 65 l0 58 43 3 42 3 0 60 c0 64 -2 66
-57 58z"/>
<path d="M7242 2728 c-86 -41 -172 -169 -233 -343 -16 -47 -29 -91 -29 -98 0
-40 -22 -46 -230 -71 -461 -56 -1464 -182 -1515 -192 l-30 -5 -17 81 c-26 126
-86 239 -172 324 -81 80 -151 120 -253 141 -130 28 -257 15 -393 -41 -136 -55
-240 -137 -331 -260 -44 -60 -128 -217 -154 -286 -10 -27 -20 -48 -24 -49 -3
0 -13 -2 -21 -3 -8 -2 -51 -7 -95 -11 -44 -4 -147 -15 -230 -26 -187 -24 -211
-24 -349 1 -107 19 -293 51 -424 73 -58 10 -67 8 -110 -12 -42 -21 -45 -24
-26 -31 11 -5 149 -30 305 -56 340 -56 433 -59 629 -21 106 21 201 37 376 63
25 3 36 13 50 42 32 69 116 185 193 265 141 148 297 225 475 235 107 6 180 -9
261 -52 58 -30 175 -129 175 -147 0 -5 14 -28 30 -51 17 -23 28 -48 25 -55 -2
-8 -1 -12 4 -9 9 6 51 -83 51 -108 0 -10 -9 -16 -22 -16 -31 0 -68 -11 -68
-19 0 -4 6 -15 13 -24 11 -15 29 -14 242 13 127 16 374 48 550 70 302 38 404
52 763 100 190 26 344 49 347 52 2 2 12 33 24 70 46 150 140 301 222 355 55
36 131 42 177 13 18 -11 30 -25 27 -30 -3 -5 0 -8 7 -5 19 6 47 -37 75 -114
l23 -66 -3 75 c-2 53 -9 88 -25 122 -26 52 -75 105 -110 119 -41 16 -134 9
-180 -13z"/>
<path d="M4033 2733 c-9 -3 -13 -26 -13 -64 l0 -60 43 3 c47 3 52 15 41 91 -5
32 -9 37 -32 36 -15 0 -33 -3 -39 -6z"/>
<path d="M1218 2699 c-9 -60 -4 -65 85 -78 412 -58 1113 -161 1133 -167 19 -5
23 -1 29 35 12 73 9 76 -128 94 -67 9 -187 25 -267 37 -132 18 -689 92 -801
106 -46 6 -47 5 -51 -27z"/>
<path d="M6553 2653 c-10 -3 -13 -46 -13 -164 l0 -160 43 3 42 3 3 163 2 162
-32 -1 c-18 0 -39 -3 -45 -6z"/>
<path d="M6377 2642 c-20 -3 -36 -17 -61 -54 l-35 -51 -32 47 c-29 40 -37 46
-68 46 -65 0 -66 -10 -5 -89 33 -43 53 -79 50 -88 -3 -8 -11 -11 -17 -7 -8 4
-9 3 -5 -4 4 -6 -16 -43 -44 -82 -27 -38 -50 -72 -50 -75 0 -7 50 -6 77 1 11
3 36 28 55 55 18 27 36 49 41 49 4 0 20 -18 35 -40 25 -36 31 -39 73 -40 25 0
48 3 51 6 3 3 -18 38 -48 77 -30 40 -54 76 -54 81 0 4 25 44 55 87 30 43 55
81 55 84 0 5 -9 4 -73 -3z"/>
<path d="M5887 2601 c-26 -5 -32 -16 -67 -116 -21 -60 -48 -136 -59 -167 -28
-78 -28 -80 21 -76 36 3 43 7 52 35 14 41 12 39 77 47 l56 7 10 -33 c9 -31 12
-33 48 -30 22 2 41 5 43 7 2 2 -8 37 -23 77 -14 40 -40 115 -58 166 -33 99
-33 98 -100 83z m47 -178 c7 -20 4 -23 -23 -23 -36 0 -35 -3 -19 58 l12 47 12
-30 c6 -17 15 -40 18 -52z"/>
<path d="M5538 2571 l-148 -14 0 -44 0 -44 55 6 55 7 0 -131 0 -131 40 0 40 0
0 135 0 135 29 0 c16 0 43 3 60 6 28 6 31 10 31 45 0 21 -3 39 -7 41 -5 2 -74
-3 -155 -11z"/>
<path d="M1216 2541 c-12 -78 -29 -71 285 -123 156 -26 383 -64 504 -84 336
-56 449 -74 453 -69 2 2 6 30 9 63 7 70 25 61 -187 92 -192 27 -657 96 -840
124 -242 38 -218 38 -224 -3z"/>
<path d="M2723 2480 c-58 -23 -77 -160 -34 -236 34 -61 83 -82 137 -59 87 36
85 220 -4 283 -32 23 -62 27 -99 12z"/>
<path d="M3002 2440 c-41 -25 -62 -73 -62 -142 0 -161 170 -246 226 -112 58
139 -58 319 -164 254z"/>
<path d="M7192 2403 c-56 -56 -75 -94 -103 -200 -55 -209 6 -468 116 -489 69
-13 130 32 177 132 93 198 68 513 -48 584 -53 34 -88 27 -142 -27z m127 -83
c30 -30 53 -93 65 -178 13 -85 -41 -249 -97 -299 -16 -14 -15 -10 6 22 42 65
60 147 53 229 -12 121 -63 194 -116 166 -23 -12 -59 -82 -60 -115 0 -15 -3
-16 -9 -7 -8 14 -9 -200 -1 -228 3 -8 16 -31 29 -50 l25 -35 -24 20 c-81 70
-95 260 -28 402 11 24 24 41 28 38 5 -3 12 0 16 6 4 8 3 9 -4 5 -7 -4 -12 -3
-12 2 0 13 61 52 82 52 9 0 30 -14 47 -30z m-49 -196 c17 -19 17 -63 1 -103
-11 -26 -16 -29 -32 -20 -31 16 -22 139 10 139 5 0 14 -7 21 -16z"/>
<path d="M7735 2444 c-185 -36 -235 -50 -235 -64 1 -36 12 -38 134 -24 66 8
121 13 122 11 2 -2 1 -12 -2 -24 -4 -16 -23 -26 -82 -43 -43 -12 -88 -25 -102
-29 -22 -7 -26 -15 -31 -72 -4 -35 -6 -65 -5 -66 1 -1 48 11 105 27 69 19 111
36 126 51 15 16 32 59 49 126 14 56 26 104 26 107 0 6 -72 6 -105 0z"/>
<path d="M1215 2196 c-27 -14 -47 -25 -43 -25 4 -1 62 -12 130 -25 68 -14 186
-36 263 -51 318 -59 465 -87 562 -106 56 -11 111 -18 121 -15 24 8 76 63 60
63 -22 1 -328 54 -453 78 -66 14 -176 34 -245 45 -69 11 -171 30 -228 40 -57
11 -106 20 -110 20 -4 0 -29 -11 -57 -24z"/>
<path d="M3410 2190 c-22 -22 -25 -42 -10 -71 23 -41 70 -16 70 38 0 44 -31
62 -60 33z"/>
<path d="M4515 2165 c-80 -39 -149 -113 -203 -217 -16 -32 -33 -54 -37 -50 -5
4 -5 2 -1 -5 3 -6 -4 -47 -16 -90 -34 -117 -31 -287 7 -403 51 -158 145 -257
267 -281 141 -29 287 70 377 256 94 192 100 449 14 618 -34 68 -105 141 -166
172 -70 35 -170 35 -242 0z m193 -142 c43 -20 79 -64 116 -143 26 -55 32 -79
35 -160 5 -148 -28 -259 -105 -349 -31 -36 -102 -91 -118 -91 -3 0 19 24 48
53 153 152 143 490 -18 588 -86 52 -186 -14 -238 -158 -27 -77 -29 -232 -4
-317 22 -75 65 -138 108 -159 50 -25 15 -20 -38 5 -95 44 -164 178 -164 317 0
128 50 268 122 347 82 89 163 110 256 67z m-69 -309 c27 -22 31 -33 31 -73 0
-27 -7 -57 -17 -71 -32 -48 -53 -51 -88 -15 -36 35 -35 111 1 154 14 17 30 31
34 31 5 0 22 -12 39 -26z"/>
<path d="M1104 2098 c-6 -9 14 -290 21 -296 5 -5 252 -67 485 -122 118 -28
251 -59 295 -70 44 -11 123 -29 175 -40 52 -11 104 -22 115 -25 20 -6 21 -4
14 67 -4 40 -8 119 -8 176 -1 56 -3 102 -6 102 -2 0 -86 17 -187 39 -101 21
-259 53 -353 71 -93 18 -255 50 -358 70 -103 20 -190 33 -193 28z"/>
<path d="M6785 2064 c-120 -13 -439 -58 -950 -133 -555 -82 -669 -101 -677
-114 -4 -6 -3 -13 2 -15 6 -2 10 -10 10 -18 0 -9 8 -12 28 -9 15 3 225 35 467
70 242 36 499 75 570 86 72 11 173 27 225 35 95 14 449 81 483 90 23 7 11 24
-16 23 -12 -1 -76 -7 -142 -15z"/>
<path d="M2321 1999 l-54 -42 6 -201 c5 -197 14 -256 39 -256 10 0 12 44 10
205 -3 228 -8 214 65 199 l30 -6 6 -166 c8 -212 14 -250 40 -264 19 -10 20 -8
14 28 -3 22 -9 136 -13 254 l-7 216 31 26 c37 31 30 36 -57 44 -54 5 -58 3
-110 -37z"/>
<path d="M4040 1882 c-162 -11 -644 -70 -695 -84 -45 -13 -75 -35 -75 -55 0
-11 10 -13 43 -8 23 3 175 21 337 40 162 19 308 37 323 40 27 5 28 4 21 -33
-3 -20 -9 -40 -13 -44 -3 -3 -127 -25 -276 -48 -148 -22 -282 -43 -297 -46
l-28 -6 0 -93 0 -93 -29 -10 c-58 -20 -68 5 -70 174 l-1 82 -37 6 c-21 4 -177
34 -346 68 -169 33 -311 58 -314 55 -16 -16 6 -324 25 -354 8 -13 418 -98 555
-115 93 -12 108 -11 315 21 313 48 484 80 509 97 12 7 26 31 32 51 15 63 63
343 59 351 -2 4 -19 6 -38 4z"/>
<path d="M6578 1837 c-98 -23 -178 -45 -178 -48 0 -6 411 -31 417 -26 8 9 -35
112 -48 114 -8 1 -94 -17 -191 -40z"/>
<path d="M7811 1730 l-434 -68 -24 -31 c-38 -49 -77 -63 -180 -69 -80 -4 -97
-2 -132 16 -22 12 -46 19 -53 17 -7 -3 -58 -11 -113 -20 -55 -8 -435 -67 -845
-130 -410 -64 -795 -123 -856 -132 l-111 -17 -23 -40 c-12 -23 -40 -67 -62
-99 -35 -53 -37 -57 -16 -52 23 5 160 29 563 99 110 19 335 58 500 85 165 28
433 73 595 101 162 28 441 75 620 106 300 51 629 112 893 166 l107 22 11 40
c5 23 12 49 15 59 3 10 0 17 -8 16 -7 0 -208 -32 -447 -69z"/>
<path d="M8040 1491 c-116 -29 -260 -61 -580 -131 -96 -21 -416 -90 -710 -155
-294 -64 -641 -139 -770 -166 -129 -27 -306 -65 -392 -84 -87 -19 -231 -51
-320 -70 -396 -87 -1964 -440 -2358 -532 -85 -20 -167 -38 -183 -41 -60 -10
-42 -18 343 -160 466 -172 414 -157 473 -139 29 8 156 45 282 82 127 37 343
100 480 140 138 40 306 89 375 110 69 20 265 77 435 127 171 49 375 109 455
133 135 41 1073 314 1650 480 140 41 350 101 465 135 116 33 251 73 300 87 50
14 98 30 108 35 15 8 61 89 88 156 11 29 5 28 -141 -7z"/>
<path d="M2428 1291 c-2 -5 -165 -32 -363 -60 -658 -94 -1255 -185 -1255 -192
0 -4 74 -33 165 -64 l165 -58 193 31 c313 51 1353 210 1467 225 58 8 98 16 90
19 -22 8 -390 96 -427 102 -17 3 -33 1 -35 -3z"/>
<path d="M3690 1049 c-59 -10 -253 -40 -445 -69 -229 -36 -702 -112 -1055
-170 -195 -32 -391 -64 -435 -70 -105 -15 -123 -20 -104 -31 31 -17 345 -131
374 -136 16 -2 109 11 205 31 292 59 790 151 1275 236 588 103 553 96 535 103
-8 3 -47 17 -87 32 -40 14 -91 39 -115 56 -45 30 -60 32 -148 18z"/>
</g>
</svg>
